<svg width="60" height="60" viewBox="0 0 60 60" fill="none" xmlns="http://www.w3.org/2000/svg">
<g clip-path="url(#clip0_2_46)">
<path d="M30 20C27.3478 20 24.8043 21.0536 22.9289 22.9289C21.0536 24.8043 20 27.3478 20 30C20 32.6522 21.0536 35.1957 22.9289 37.0711C24.8043 38.9464 27.3478 40 30 40C32.6522 40 35.1957 38.9464 37.0711 37.0711C38.9464 35.1957 40 32.6522 40 30C40 27.3478 38.9464 24.8043 37.0711 22.9289C35.1957 21.0536 32.6522 20 30 20Z" fill="black"/>
<path fill-rule="evenodd" clip-rule="evenodd" d="M18 0C13.2261 0 8.64773 1.89642 5.27208 5.27208C1.89642 8.64773 0 13.2261 0 18L0 42C0 46.7739 1.89642 51.3523 5.27208 54.7279C8.64773 58.1036 13.2261 60 18 60H42C46.7739 60 51.3523 58.1036 54.7279 54.7279C58.1036 51.3523 60 46.7739 60 42V18C60 13.2261 58.1036 8.64773 54.7279 5.27208C51.3523 1.89642 46.7739 0 42 0L18 0ZM16 30C16 26.287 17.475 22.726 20.1005 20.1005C22.726 17.475 26.287 16 30 16C33.713 16 37.274 17.475 39.8995 20.1005C42.525 22.726 44 26.287 44 30C44 33.713 42.525 37.274 39.8995 39.8995C37.274 42.525 33.713 44 30 44C26.287 44 22.726 42.525 20.1005 39.8995C17.475 37.274 16 33.713 16 30ZM44 16H48V12H44V16Z" fill="black"/>
<g clip-path="url(#clip1_2_46)">
<path d="M45.9375 0H14.0625C6.296 0 0 6.296 0 14.0625V45.9375C0 53.704 6.296 60 14.0625 60H45.9375C53.704 60 60 53.704 60 45.9375V14.0625C60 6.296 53.704 0 45.9375 0Z" fill="url(#paint0_radial_2_46)"/>
<path d="M45.9375 0H14.0625C6.296 0 0 6.296 0 14.0625V45.9375C0 53.704 6.296 60 14.0625 60H45.9375C53.704 60 60 53.704 60 45.9375V14.0625C60 6.296 53.704 0 45.9375 0Z" fill="url(#paint1_radial_2_46)"/>
<path d="M30.0021 6.5625C23.637 6.5625 22.838 6.59039 20.3381 6.70406C17.843 6.81844 16.1398 7.21336 14.6496 7.79297C13.1079 8.39156 11.8003 9.19242 10.4977 10.4955C9.19383 11.7984 8.39297 13.106 7.7925 14.647C7.21125 16.1377 6.81586 17.8416 6.70359 20.3355C6.5918 22.8356 6.5625 23.6348 6.5625 30.0002C6.5625 36.3656 6.59063 37.162 6.70406 39.6619C6.81891 42.157 7.21383 43.8602 7.79297 45.3504C8.39203 46.8921 9.19289 48.1997 10.496 49.5023C11.7984 50.8062 13.106 51.6089 14.6466 52.2075C16.1379 52.7871 17.8413 53.182 20.336 53.2964C22.8361 53.4101 23.6344 53.438 29.9993 53.438C36.3652 53.438 37.1616 53.4101 39.6614 53.2964C42.1566 53.182 43.8616 52.7871 45.353 52.2075C46.894 51.6089 48.1997 50.8062 49.5019 49.5023C50.8057 48.1997 51.6063 46.8921 52.207 45.3511C52.7831 43.8602 53.1787 42.1566 53.2959 39.6623C53.4082 37.1625 53.4375 36.3656 53.4375 30.0002C53.4375 23.6348 53.4082 22.8361 53.2959 20.336C53.1787 17.8409 52.7831 16.1379 52.207 14.6477C51.6063 13.106 50.8057 11.7984 49.5019 10.4955C48.1983 9.19195 46.8945 8.39109 45.3516 7.7932C43.8574 7.21336 42.1533 6.8182 39.6581 6.70406C37.158 6.59039 36.3621 6.5625 29.9948 6.5625H30.0021ZM27.8995 10.7862C28.5237 10.7852 29.22 10.7862 30.0021 10.7862C36.2602 10.7862 37.0017 10.8087 39.473 10.9209C41.7581 11.0255 42.9984 11.4073 43.8246 11.7281C44.9184 12.1528 45.6982 12.6607 46.518 13.4813C47.3384 14.3016 47.846 15.0827 48.2719 16.1766C48.5927 17.0016 48.975 18.2419 49.0791 20.527C49.1913 22.9978 49.2157 23.7398 49.2157 29.9948C49.2157 36.2498 49.1913 36.9921 49.0791 39.4627C48.9745 41.7478 48.5927 42.9881 48.2719 43.8134C47.8472 44.9072 47.3384 45.686 46.518 46.5059C45.6977 47.3262 44.9189 47.8338 43.8246 48.2588C42.9994 48.581 41.7581 48.9619 39.473 49.0664C37.0022 49.1787 36.2602 49.203 30.0021 49.203C23.7438 49.203 23.002 49.1787 20.5315 49.0664C18.2463 48.9609 17.006 48.5791 16.1791 48.2583C15.0855 47.8334 14.3041 47.3257 13.4838 46.5054C12.6635 45.6851 12.1559 44.9058 11.73 43.8115C11.4091 42.9863 11.0269 41.7459 10.9228 39.4608C10.8105 36.99 10.788 36.248 10.788 29.989C10.788 23.7302 10.8105 22.992 10.9228 20.5212C11.0273 18.236 11.4091 16.9957 11.73 16.1695C12.1549 15.0757 12.6635 14.2945 13.4841 13.4742C14.3044 12.6539 15.0855 12.146 16.1794 11.7204C17.0055 11.3981 18.2463 11.0173 20.5315 10.9123C22.6936 10.8145 23.5315 10.7852 27.8995 10.7803V10.7862ZM42.513 14.6777C40.9603 14.6777 39.7005 15.9363 39.7005 17.4893C39.7005 19.042 40.9603 20.3018 42.513 20.3018C44.0658 20.3018 45.3255 19.042 45.3255 17.4893C45.3255 15.9366 44.0658 14.6768 42.513 14.6768V14.6777ZM30.0021 17.9639C23.3552 17.9639 17.966 23.3531 17.966 30.0002C17.966 36.6473 23.3552 42.034 30.0021 42.034C36.6492 42.034 42.0366 36.6473 42.0366 30.0002C42.0366 23.3534 36.6488 17.9639 30.0016 17.9639H30.0021ZM30.0021 22.1876C34.3167 22.1876 37.8148 25.6852 37.8148 30.0002C37.8148 34.3148 34.3167 37.8129 30.0021 37.8129C25.6873 37.8129 22.1897 34.3148 22.1897 30.0002C22.1897 25.6852 25.6873 22.1876 30.0021 22.1876Z" fill="white"/>
</g>
</g>
<defs>
<radialGradient id="paint0_radial_2_46" cx="0" cy="0" r="1" gradientUnits="userSpaceOnUse" gradientTransform="translate(15.9375 64.6212) rotate(-90) scale(59.4645 55.3066)">
<stop stop-color="#FFDD55"/>
<stop offset="0.1" stop-color="#FFDD55"/>
<stop offset="0.5" stop-color="#FF543E"/>
<stop offset="1" stop-color="#C837AB"/>
</radialGradient>
<radialGradient id="paint1_radial_2_46" cx="0" cy="0" r="1" gradientUnits="userSpaceOnUse" gradientTransform="translate(-10.0502 4.32211) rotate(78.681) scale(26.5809 109.567)">
<stop stop-color="#3771C8"/>
<stop offset="0.128" stop-color="#3771C8"/>
<stop offset="1" stop-color="#6600FF" stop-opacity="0"/>
</radialGradient>
<clipPath id="clip0_2_46">
<rect width="60" height="60" fill="white"/>
</clipPath>
<clipPath id="clip1_2_46">
<rect width="60" height="60" fill="white"/>
</clipPath>
</defs>
</svg>
