<svg width="60" height="60" viewBox="0 0 60 60" fill="none" xmlns="http://www.w3.org/2000/svg">
<g clip-path="url(#clip0_65_15)">
<path d="M23.7225 0.0100024L25.545 0.00250244H34.455L36.28 0.0100024L38.565 0.0350024L39.6475 0.0525024L40.6925 0.0800024L41.7 0.115002L42.67 0.155002L43.605 0.207502L44.505 0.270002L45.3675 0.345002L46.2 0.427502C50.55 0.917502 53.5325 1.9675 55.7825 4.2175C58.0325 6.4675 59.0825 9.4475 59.5725 13.8L59.6575 14.6325L59.73 15.4975L59.7925 16.3975L59.8425 17.33L59.905 18.8L59.935 19.825L59.9675 21.435L59.99 23.7225L60 26.1725L59.9975 34.455L59.99 36.28L59.965 38.565L59.9475 39.6475L59.92 40.6925L59.885 41.7L59.845 42.67L59.7925 43.605L59.73 44.505L59.655 45.3675L59.5725 46.2C59.0825 50.55 58.0325 53.5325 55.7825 55.7825C53.5325 58.0325 50.5525 59.0825 46.2 59.5725L45.3675 59.6575L44.5025 59.73L43.6025 59.7925L42.67 59.8425L41.2 59.905L40.175 59.935L38.565 59.9675L36.2775 59.99L33.8275 60L25.545 59.9975L23.72 59.99L21.435 59.965L20.3525 59.9475L19.3075 59.92L18.3 59.885L17.33 59.845L16.395 59.7925L15.495 59.73L14.6325 59.655L13.8 59.5725C9.45 59.0825 6.4675 58.0325 4.2175 55.7825C1.9675 53.5325 0.9175 50.5525 0.4275 46.2L0.3425 45.3675L0.27 44.5025L0.2075 43.6025L0.1575 42.67L0.095 41.2L0.065 40.175L0.0325 38.565L0.01 36.2775L0 33.8275L0.0025 25.545L0.01 23.72L0.035 21.435L0.0525 20.3525L0.08 19.3075L0.115 18.3L0.155 17.33L0.2075 16.395L0.27 15.495L0.345 14.6325L0.4275 13.8C0.9175 9.45 1.9675 6.4675 4.2175 4.2175C6.4675 1.9675 9.4475 0.917502 13.8 0.427502L14.6325 0.342502L15.4975 0.270002L16.3975 0.207502L17.33 0.157502L18.8 0.0950024L19.825 0.0650024L21.435 0.0325024L23.7225 0.0100024ZM16.975 18.25H10.125C10.45 33.85 18.25 43.225 31.925 43.225H32.7V34.3C37.725 34.8 41.525 38.475 43.05 43.225H50.15C48.2 36.125 43.075 32.2 39.875 30.7C43.075 28.85 47.575 24.35 48.65 18.25H42.2C40.8 23.2 36.65 27.7 32.7 28.125V18.25H26.25V35.55C22.25 34.55 17.2 29.7 16.975 18.25Z" fill="#5362E8"/>
</g>
<defs>
<clipPath id="clip0_65_15">
<rect width="60" height="60" fill="white"/>
</clipPath>
</defs>
</svg>
